# xmcd
#
# Track frame offsets:
#	150
#	16614
#	30136
#	43327
#	55855
#	72756
#	84249
#	98971
#	113643
#	130081
#	142547
#	158212
#	179647
#	198930
#
# Disc length: 2974 seconds
#
# Revision: 570873757
# Processed by: cddbd v1.5.2PL0 Copyright (c) Steve Scherf et al.
# Submitted via: EZCDAudioConverter 8.0.3.1
#
DISCID=a60b9c0e
DTITLE=Toby Keith - Hope On The Rocks
DYEAR=2012
DGENRE=Country
TTITLE0=Hope On The Rocks
TTITLE1=The Size I Wear
TTITLE2=Scat Cat
TTITLE3=I Like Girls That Drink Beer
TTITLE4=Get Got
TTITLE5=Haven't Had A Drink All Day
TTITLE6=Haven't Seen The Last Of You
TTITLE7=Cold Beer Country
TTITLE8=Missed You Just Right
TTITLE9=You Ain't Alone
TTITLE10=Red Solo Cup (Johnny Mac Remix)
TTITLE11=Beers Ago (Jason Nevins Remix)
TTITLE12=Whiskey Girl [Live]
TTITLE13=Get Out Of My Car [Live]
EXTD=
EXTT0=
EXTT1=
EXTT2=
EXTT3=
EXTT4=
EXTT5=
EXTT6=
EXTT7=
EXTT8=
EXTT9=
EXTT10=
EXTT11=
EXTT12=
EXTT13=
PLAYORDER=
